<svg xmlns="http://www.w3.org/2000/svg" width="1200" height="720" viewBox="0 0 1200 720" role="img" aria-label="Industrial gasket pattern">
  <rect width="1200" height="720" fill="#123f31"/>
  <g fill="none" stroke="#ffffff" stroke-opacity="0.16" stroke-width="3">
    <rect x="82" y="82" width="240" height="160" rx="18"/>
    <rect x="126" y="126" width="152" height="72" rx="12"/>
    <rect x="410" y="74" width="350" height="226" rx="26"/>
    <rect x="468" y="132" width="234" height="110" rx="18"/>
    <path d="M840 118h182c50 0 90 40 90 90v86H930c-50 0-90-40-90-90z"/>
    <circle cx="224" cy="486" r="92"/>
    <circle cx="224" cy="486" r="46"/>
    <path d="M420 470h330c22 0 40 18 40 40v36c0 22-18 40-40 40H420c-22 0-40-18-40-40v-36c0-22 18-40 40-40z"/>
    <path d="M870 436h176c58 0 104 46 104 104v24H974c-58 0-104-46-104-104z"/>
  </g>
  <g fill="#ffffff" fill-opacity="0.11">
    <circle cx="1010" cy="146" r="10"/>
    <circle cx="1010" cy="266" r="10"/>
    <circle cx="114" cy="114" r="8"/>
    <circle cx="290" cy="210" r="8"/>
    <circle cx="450" cy="112" r="9"/>
    <circle cx="720" cy="262" r="9"/>
    <circle cx="422" cy="512" r="8"/>
    <circle cx="748" cy="546" r="8"/>
  </g>
</svg>
